<svg width="688" height="67" viewBox="0 0 688 67" fill="none" xmlns="http://www.w3.org/2000/svg">
<rect width="332" height="67" rx="24" fill="#0A3871"/>
<path d="M133.339 39H140.452V37.75H134.748V33.7955H139.998V32.5455H134.748V28.6136H140.362V27.3636H133.339V39ZM144.06 33.75C144.06 32.2273 145.004 31.3636 146.288 31.3636C147.532 31.3636 148.288 32.1761 148.288 33.5455V39H149.629V33.4545C149.629 31.2273 148.441 30.1591 146.674 30.1591C145.356 30.1591 144.538 30.75 144.129 31.6364H144.015V30.2727H142.719V39H144.06V33.75ZM155.624 39.1818C157.556 39.1818 158.829 38 159.056 36.4545H157.715C157.465 37.4091 156.67 37.9773 155.624 37.9773C154.033 37.9773 153.011 36.6591 153.011 34.6364C153.011 32.6591 154.056 31.3636 155.624 31.3636C156.806 31.3636 157.511 32.0909 157.715 32.8864H159.056C158.829 31.25 157.442 30.1591 155.602 30.1591C153.238 30.1591 151.67 32.0227 151.67 34.6818C151.67 37.2955 153.17 39.1818 155.624 39.1818ZM161.016 39H162.357V33.4773C162.357 32.2955 163.289 31.4318 164.562 31.4318C164.92 31.4318 165.289 31.5 165.38 31.5227V30.1591C165.227 30.1477 164.874 30.1364 164.675 30.1364C163.63 30.1364 162.721 30.7273 162.403 31.5909H162.312V30.2727H161.016V39ZM166.969 39H168.31V30.2727H166.969V39ZM167.651 28.8182C168.174 28.8182 168.606 28.4091 168.606 27.9091C168.606 27.4091 168.174 27 167.651 27C167.129 27 166.697 27.4091 166.697 27.9091C166.697 28.4091 167.129 28.8182 167.651 28.8182ZM170.766 42.2727H172.107V37.6591H172.221C172.516 38.1364 173.085 39.1818 174.766 39.1818C176.948 39.1818 178.471 37.4318 178.471 34.6591C178.471 31.9091 176.948 30.1591 174.744 30.1591C173.039 30.1591 172.516 31.2045 172.221 31.6591H172.062V30.2727H170.766V42.2727ZM172.085 34.6364C172.085 32.6818 172.948 31.3636 174.585 31.3636C176.289 31.3636 177.13 32.7955 177.13 34.6364C177.13 36.5 176.266 37.9773 174.585 37.9773C172.971 37.9773 172.085 36.6136 172.085 34.6364ZM184.312 30.2727H182.448V28.1818H181.107V30.2727H179.789V31.4091H181.107V36.8636C181.107 38.3864 182.335 39.1136 183.471 39.1136C183.971 39.1136 184.289 39.0227 184.471 38.9545L184.198 37.75C184.085 37.7727 183.903 37.8182 183.607 37.8182C183.016 37.8182 182.448 37.6364 182.448 36.5V31.4091H184.312V30.2727ZM188.897 39.2045C190.42 39.2045 191.215 38.3864 191.488 37.8182H191.556V39H192.897V33.25C192.897 30.4773 190.783 30.1591 189.67 30.1591C188.352 30.1591 186.852 30.6136 186.17 32.2045L187.442 32.6591C187.738 32.0227 188.437 31.3409 189.715 31.3409C190.948 31.3409 191.556 31.9943 191.556 33.1136V33.1591C191.556 33.8068 190.897 33.75 189.306 33.9545C187.687 34.1648 185.92 34.5227 185.92 36.5227C185.92 38.2273 187.238 39.2045 188.897 39.2045ZM189.102 38C188.033 38 187.261 37.5227 187.261 36.5909C187.261 35.5682 188.192 35.25 189.238 35.1136C189.806 35.0455 191.329 34.8864 191.556 34.6136V35.8409C191.556 36.9318 190.692 38 189.102 38ZM195.344 39H196.685V33.4773C196.685 32.2955 197.617 31.4318 198.89 31.4318C199.248 31.4318 199.617 31.5 199.708 31.5227V30.1591C199.555 30.1477 199.202 30.1364 199.004 30.1364C197.958 30.1364 197.049 30.7273 196.731 31.5909H196.64V30.2727H195.344V39Z" fill="white"/>
<rect x="356.5" y="0.5" width="331" height="66" rx="23.5" stroke="#0A3871"/>
<path d="M478.469 39C482.014 39 484.014 36.7955 484.014 33.1591C484.014 29.5455 482.014 27.3636 478.628 27.3636H474.878V39H478.469ZM476.287 37.75V28.6136H478.537C481.264 28.6136 482.651 30.3409 482.651 33.1591C482.651 36 481.264 37.75 478.378 37.75H476.287ZM489.855 39.1818C491.628 39.1818 492.923 38.2955 493.332 36.9773L492.037 36.6136C491.696 37.5227 490.906 37.9773 489.855 37.9773C488.281 37.9773 487.196 36.9602 487.134 35.0909H493.469V34.5227C493.469 31.2727 491.537 30.1591 489.719 30.1591C487.355 30.1591 485.787 32.0227 485.787 34.7045C485.787 37.3864 487.332 39.1818 489.855 39.1818ZM487.134 33.9318C487.224 32.5739 488.185 31.3636 489.719 31.3636C491.173 31.3636 492.105 32.4545 492.105 33.9318H487.134ZM501.69 32.2273C501.27 30.9886 500.327 30.1591 498.599 30.1591C496.759 30.1591 495.395 31.2045 495.395 32.6818C495.395 33.8864 496.111 34.6932 497.713 35.0682L499.168 35.4091C500.048 35.6136 500.463 36.0341 500.463 36.6364C500.463 37.3864 499.668 38 498.418 38C497.321 38 496.634 37.5284 496.395 36.5909L495.122 36.9091C495.435 38.392 496.656 39.1818 498.44 39.1818C500.469 39.1818 501.849 38.0739 501.849 36.5682C501.849 35.3523 501.088 34.5852 499.531 34.2045L498.236 33.8864C497.202 33.6307 496.736 33.2841 496.736 32.6136C496.736 31.8636 497.531 31.3182 498.599 31.3182C499.77 31.3182 500.253 31.9659 500.486 32.5682L501.69 32.2273ZM507.527 39.1818C509.3 39.1818 510.595 38.2955 511.004 36.9773L509.709 36.6136C509.368 37.5227 508.578 37.9773 507.527 37.9773C505.953 37.9773 504.868 36.9602 504.805 35.0909H511.141V34.5227C511.141 31.2727 509.209 30.1591 507.391 30.1591C505.027 30.1591 503.459 32.0227 503.459 34.7045C503.459 37.3864 505.004 39.1818 507.527 39.1818ZM504.805 33.9318C504.896 32.5739 505.857 31.3636 507.391 31.3636C508.845 31.3636 509.777 32.4545 509.777 33.9318H504.805ZM514.521 33.75C514.521 32.2273 515.464 31.3636 516.749 31.3636C517.993 31.3636 518.749 32.1761 518.749 33.5455V39H520.089V33.4545C520.089 31.2273 518.902 30.1591 517.135 30.1591C515.817 30.1591 514.999 30.75 514.589 31.6364H514.476V30.2727H513.18V39H514.521V33.75ZM526.085 39.1818C528.017 39.1818 529.29 38 529.517 36.4545H528.176C527.926 37.4091 527.131 37.9773 526.085 37.9773C524.494 37.9773 523.472 36.6591 523.472 34.6364C523.472 32.6591 524.517 31.3636 526.085 31.3636C527.267 31.3636 527.972 32.0909 528.176 32.8864H529.517C529.29 31.25 527.903 30.1591 526.062 30.1591C523.699 30.1591 522.131 32.0227 522.131 34.6818C522.131 37.2955 523.631 39.1818 526.085 39.1818ZM531.477 39H532.818V33.4773C532.818 32.2955 533.75 31.4318 535.023 31.4318C535.381 31.4318 535.75 31.5 535.841 31.5227V30.1591C535.688 30.1477 535.335 30.1364 535.136 30.1364C534.091 30.1364 533.182 30.7273 532.864 31.5909H532.773V30.2727H531.477V39ZM537.43 39H538.771V30.2727H537.43V39ZM538.112 28.8182C538.635 28.8182 539.067 28.4091 539.067 27.9091C539.067 27.4091 538.635 27 538.112 27C537.589 27 537.158 27.4091 537.158 27.9091C537.158 28.4091 537.589 28.8182 538.112 28.8182ZM541.227 42.2727H542.568V37.6591H542.682C542.977 38.1364 543.545 39.1818 545.227 39.1818C547.409 39.1818 548.932 37.4318 548.932 34.6591C548.932 31.9091 547.409 30.1591 545.205 30.1591C543.5 30.1591 542.977 31.2045 542.682 31.6591H542.523V30.2727H541.227V42.2727ZM542.545 34.6364C542.545 32.6818 543.409 31.3636 545.045 31.3636C546.75 31.3636 547.591 32.7955 547.591 34.6364C547.591 36.5 546.727 37.9773 545.045 37.9773C543.432 37.9773 542.545 36.6136 542.545 34.6364ZM554.773 30.2727H552.909V28.1818H551.568V30.2727H550.25V31.4091H551.568V36.8636C551.568 38.3864 552.795 39.1136 553.932 39.1136C554.432 39.1136 554.75 39.0227 554.932 38.9545L554.659 37.75C554.545 37.7727 554.364 37.8182 554.068 37.8182C553.477 37.8182 552.909 37.6364 552.909 36.5V31.4091H554.773V30.2727ZM559.358 39.2045C560.881 39.2045 561.676 38.3864 561.949 37.8182H562.017V39H563.358V33.25C563.358 30.4773 561.244 30.1591 560.131 30.1591C558.812 30.1591 557.312 30.6136 556.631 32.2045L557.903 32.6591C558.199 32.0227 558.898 31.3409 560.176 31.3409C561.409 31.3409 562.017 31.9943 562.017 33.1136V33.1591C562.017 33.8068 561.358 33.75 559.767 33.9545C558.148 34.1648 556.381 34.5227 556.381 36.5227C556.381 38.2273 557.699 39.2045 559.358 39.2045ZM559.562 38C558.494 38 557.722 37.5227 557.722 36.5909C557.722 35.5682 558.653 35.25 559.699 35.1136C560.267 35.0455 561.79 34.8864 562.017 34.6136V35.8409C562.017 36.9318 561.153 38 559.562 38ZM565.805 39H567.146V33.4773C567.146 32.2955 568.078 31.4318 569.351 31.4318C569.709 31.4318 570.078 31.5 570.169 31.5227V30.1591C570.016 30.1477 569.663 30.1364 569.464 30.1364C568.419 30.1364 567.51 30.7273 567.192 31.5909H567.101V30.2727H565.805V39Z" fill="#0A3871"/>
</svg>
