<svg width="303" height="31" viewBox="0 0 303 31" fill="none" xmlns="http://www.w3.org/2000/svg">
<path d="M3.63636 0.727272H0.818182V24H3.63636V0.727272ZM11.6051 13.5C11.6051 10.4545 13.4915 8.72727 16.0597 8.72727C18.5483 8.72727 20.0597 10.3523 20.0597 13.0909V24H22.7415V12.9091C22.7415 8.45455 20.3665 6.31818 16.8324 6.31818C14.196 6.31818 12.5597 7.5 11.7415 9.27273H11.5142V6.54545H8.9233V24H11.6051V13.5ZM34.6875 30.9091C38.8693 30.9091 42.233 29 42.233 24.5V6.54545H39.642V9.31818H39.3693C38.7784 8.40909 37.6875 6.31818 34.2784 6.31818C29.8693 6.31818 26.8239 9.81818 26.8239 15.1818C26.8239 20.6364 30.0057 23.7273 34.233 23.7273C37.642 23.7273 38.733 21.7273 39.3239 20.7727H39.5511V24.3182C39.5511 27.2273 37.5057 28.5455 34.6875 28.5455C31.517 28.5455 30.4034 26.875 29.6875 25.9091L27.5511 27.4091C28.642 29.2386 30.7898 30.9091 34.6875 30.9091ZM34.5966 21.3182C31.233 21.3182 29.5057 18.7727 29.5057 15.1364C29.5057 11.5909 31.1875 8.72727 34.5966 8.72727C37.8693 8.72727 39.5966 11.3636 39.5966 15.1364C39.5966 19 37.8239 21.3182 34.5966 21.3182ZM47.142 24H49.8239V12.9545C49.8239 10.5909 51.6875 8.86364 54.233 8.86364C54.9489 8.86364 55.6875 9 55.8693 9.04545V6.31818C55.5625 6.29545 54.858 6.27273 54.4602 6.27273C52.3693 6.27273 50.5511 7.45454 49.9148 9.18182H49.733V6.54545H47.142V24ZM65.8352 24.3636C69.3807 24.3636 71.9716 22.5909 72.7898 19.9545L70.1989 19.2273C69.517 21.0455 67.9375 21.9545 65.8352 21.9545C62.6875 21.9545 60.517 19.9205 60.392 16.1818H73.0625V15.0455C73.0625 8.54545 69.1989 6.31818 65.5625 6.31818C60.8352 6.31818 57.6989 10.0455 57.6989 15.4091C57.6989 20.7727 60.7898 24.3636 65.8352 24.3636ZM60.392 13.8636C60.5739 11.1477 62.4943 8.72727 65.5625 8.72727C68.4716 8.72727 70.3352 10.9091 70.3352 13.8636H60.392ZM89.5057 10.4545C88.6648 7.97727 86.7784 6.31818 83.3239 6.31818C79.642 6.31818 76.9148 8.40909 76.9148 11.3636C76.9148 13.7727 78.3466 15.3864 81.5511 16.1364L84.4602 16.8182C86.2216 17.2273 87.0511 18.0682 87.0511 19.2727C87.0511 20.7727 85.4602 22 82.9602 22C80.767 22 79.392 21.0568 78.9148 19.1818L76.3693 19.8182C76.9943 22.7841 79.4375 24.3636 83.0057 24.3636C87.0625 24.3636 89.8239 22.1477 89.8239 19.1364C89.8239 16.7045 88.3011 15.1705 85.1875 14.4091L82.5966 13.7727C80.5284 13.2614 79.5966 12.5682 79.5966 11.2273C79.5966 9.72727 81.1875 8.63636 83.3239 8.63636C85.6648 8.63636 86.6307 9.93182 87.0966 11.1364L89.5057 10.4545ZM101.179 24.3636C104.724 24.3636 107.315 22.5909 108.134 19.9545L105.543 19.2273C104.861 21.0455 103.281 21.9545 101.179 21.9545C98.0312 21.9545 95.8608 19.9205 95.7358 16.1818H108.406V15.0455C108.406 8.54545 104.543 6.31818 100.906 6.31818C96.179 6.31818 93.0426 10.0455 93.0426 15.4091C93.0426 20.7727 96.1335 24.3636 101.179 24.3636ZM95.7358 13.8636C95.9176 11.1477 97.8381 8.72727 100.906 8.72727C103.815 8.72727 105.679 10.9091 105.679 13.8636H95.7358ZM128.804 24.3636C132.349 24.3636 134.94 22.5909 135.759 19.9545L133.168 19.2273C132.486 21.0455 130.906 21.9545 128.804 21.9545C125.656 21.9545 123.486 19.9205 123.361 16.1818H136.031V15.0455C136.031 8.54545 132.168 6.31818 128.531 6.31818C123.804 6.31818 120.668 10.0455 120.668 15.4091C120.668 20.7727 123.759 24.3636 128.804 24.3636ZM123.361 13.8636C123.543 11.1477 125.463 8.72727 128.531 8.72727C131.44 8.72727 133.304 10.9091 133.304 13.8636H123.361ZM142.793 0.727272H140.111V24H142.793V0.727272ZM164.295 6.54545H160.568V2.36364H157.886V6.54545H155.25V8.81818H157.886V19.7273C157.886 22.7727 160.341 24.2273 162.614 24.2273C163.614 24.2273 164.25 24.0455 164.614 23.9091L164.068 21.5C163.841 21.5455 163.477 21.6364 162.886 21.6364C161.705 21.6364 160.568 21.2727 160.568 19V8.81818H164.295V6.54545ZM175.46 24.3636C179.006 24.3636 181.597 22.5909 182.415 19.9545L179.824 19.2273C179.142 21.0455 177.562 21.9545 175.46 21.9545C172.312 21.9545 170.142 19.9205 170.017 16.1818H182.688V15.0455C182.688 8.54545 178.824 6.31818 175.188 6.31818C170.46 6.31818 167.324 10.0455 167.324 15.4091C167.324 20.7727 170.415 24.3636 175.46 24.3636ZM170.017 13.8636C170.199 11.1477 172.119 8.72727 175.188 8.72727C178.097 8.72727 179.96 10.9091 179.96 13.8636H170.017ZM188.298 6.54545H185.207L190.753 15.2727L185.207 24H188.298L192.48 17.2273L196.662 24H199.753L194.116 15.2727L199.753 6.54545H196.662L192.48 13.6818L188.298 6.54545ZM211.17 6.54545H207.443V2.36364H204.761V6.54545H202.125V8.81818H204.761V19.7273C204.761 22.7727 207.216 24.2273 209.489 24.2273C210.489 24.2273 211.125 24.0455 211.489 23.9091L210.943 21.5C210.716 21.5455 210.352 21.6364 209.761 21.6364C208.58 21.6364 207.443 21.2727 207.443 19V8.81818H211.17V6.54545ZM222.108 24.3636C226.835 24.3636 230.017 20.7727 230.017 15.3636C230.017 9.90909 226.835 6.31818 222.108 6.31818C217.381 6.31818 214.199 9.90909 214.199 15.3636C214.199 20.7727 217.381 24.3636 222.108 24.3636ZM222.108 21.9545C218.517 21.9545 216.881 18.8636 216.881 15.3636C216.881 11.8636 218.517 8.72727 222.108 8.72727C225.699 8.72727 227.335 11.8636 227.335 15.3636C227.335 18.8636 225.699 21.9545 222.108 21.9545ZM248.247 24.4091C251.293 24.4091 252.884 22.7727 253.429 21.6364H253.565V24H256.247V12.5C256.247 6.95454 252.02 6.31818 249.793 6.31818C247.156 6.31818 244.156 7.22727 242.793 10.4091L245.338 11.3182C245.929 10.0455 247.327 8.68182 249.884 8.68182C252.349 8.68182 253.565 9.98864 253.565 12.2273V12.3182C253.565 13.6136 252.247 13.5 249.065 13.9091C245.827 14.3295 242.293 15.0455 242.293 19.0455C242.293 22.4545 244.929 24.4091 248.247 24.4091ZM248.656 22C246.52 22 244.974 21.0455 244.974 19.1818C244.974 17.1364 246.838 16.5 248.929 16.2273C250.065 16.0909 253.111 15.7727 253.565 15.2273V17.6818C253.565 19.8636 251.838 22 248.656 22ZM275.733 30.5455V6.54545H273.142V9.31818H272.824C272.233 8.40909 271.188 6.31818 267.778 6.31818C263.369 6.31818 260.324 9.81818 260.324 15.3182C260.324 20.8636 263.369 24.3636 267.733 24.3636C271.097 24.3636 272.233 22.2727 272.824 21.3182H273.051V30.5455H275.733ZM273.097 15.2727C273.097 19.2273 271.324 21.9545 268.097 21.9545C264.733 21.9545 263.006 19 263.006 15.2727C263.006 11.5909 264.688 8.72727 268.097 8.72727C271.369 8.72727 273.097 11.3636 273.097 15.2727ZM291.642 16.8636C291.642 20.1364 289.142 21.6364 287.142 21.6364C284.915 21.6364 283.324 20 283.324 17.4545V6.54545H280.642V17.6364C280.642 22.0909 283.006 24.2273 286.278 24.2273C288.915 24.2273 290.642 22.8182 291.46 21.0455H291.642V24H294.324V6.54545H291.642V16.8636ZM299.236 24H301.918V6.54545H299.236V24ZM300.599 3.63636C301.645 3.63636 302.509 2.81818 302.509 1.81818C302.509 0.818182 301.645 0 300.599 0C299.554 0 298.69 0.818182 298.69 1.81818C298.69 2.81818 299.554 3.63636 300.599 3.63636Z" fill="#0A3871"/>
</svg>
